<svg width="37" height="35" viewBox="0 0 37 35" fill="none" xmlns="http://www.w3.org/2000/svg">
<path fill-rule="evenodd" clip-rule="evenodd" d="M18.7998 0C8.88651 0 0.857178 8.02933 0.857178 17.9426C0.857178 25.8823 5.99326 32.5883 13.1255 34.9657C14.0226 35.1227 14.359 34.5844 14.359 34.1134C14.359 33.6873 14.3366 32.2743 14.3366 30.7716C9.8285 31.6015 8.66223 29.6726 8.30337 28.6634C8.10152 28.1475 7.22682 26.5551 6.46425 26.129C5.83626 25.7925 4.93913 24.9627 6.44182 24.9403C7.85481 24.9178 8.86408 26.2411 9.20051 26.7794C10.8153 29.4932 13.3946 28.7307 14.4263 28.2597C14.5833 27.0934 15.0543 26.3084 15.5701 25.8598C11.5779 25.4113 7.40624 23.8637 7.40624 17.0007C7.40624 15.0494 8.10152 13.4346 9.24536 12.1786C9.06594 11.73 8.43794 9.89088 9.42479 7.42377C9.42479 7.42377 10.9275 6.95277 14.359 9.26289C15.7944 8.85918 17.3196 8.65732 18.8447 8.65732C20.3698 8.65732 21.8949 8.85918 23.3303 9.26289C26.7619 6.93035 28.2646 7.42377 28.2646 7.42377C29.2514 9.89088 28.6234 11.73 28.444 12.1786C29.5878 13.4346 30.2831 15.027 30.2831 17.0007C30.2831 23.8861 26.089 25.4113 22.0968 25.8598C22.7472 26.4205 23.3079 27.4971 23.3079 29.1792C23.3079 31.579 23.2855 33.5079 23.2855 34.1134C23.2855 34.5844 23.6219 35.1451 24.519 34.9657C28.0809 33.7631 31.176 31.4739 33.3687 28.4202C35.5615 25.3665 36.7414 21.7021 36.7425 17.9426C36.7425 8.02933 28.7131 0 18.7998 0Z" fill="#F9F9F9"/>
</svg>
