<svg width="52" height="35" viewBox="0 0 52 35" fill="none" xmlns="http://www.w3.org/2000/svg">
<path d="M42.9934 0C42.7177 0.00582756 42.4504 0.0964163 42.228 0.259452C42.055 0.432419 41.8799 0.683223 41.8799 0.936188C41.8799 1.36861 42.3902 1.96102 43.335 2.9318C47.2743 6.72412 49.2548 11.3705 49.2418 16.9724C49.2267 23.1712 47.1446 28.1505 43.0928 32.0077C42.241 32.7709 41.8907 33.3698 41.8885 33.8822C41.8885 34.133 42.0615 34.3946 42.2345 34.6454C42.4411 34.8464 42.7106 34.9701 42.9977 34.9957C43.936 34.9957 45.2463 33.8887 46.9608 31.7331C50.2948 27.6467 51.8039 23.1323 51.8882 16.9789C51.9661 10.8234 50.0353 6.6506 46.2603 2.34155C44.8982 0.802137 43.7674 0.0021621 42.9934 0V0ZM8.89929 0.00432439C8.12526 0.00432439 6.99232 0.8043 5.63452 2.34587C1.85518 6.65493 -0.0755721 10.8278 0.00226334 16.9833C0.0887472 23.1366 1.59573 27.6489 4.93184 31.7374C6.64206 33.893 7.95445 35.0022 8.8928 35C9.17946 34.9752 9.44855 34.8513 9.65386 34.6497C9.82683 34.3989 9.99979 34.1373 9.99979 33.8865C9.99979 33.3741 9.64953 32.7752 8.79767 32.0141C4.74806 28.1548 2.6638 23.1777 2.64867 16.9768C2.6357 11.3748 4.61618 6.72844 8.55551 2.93613C9.50035 1.96534 10.0128 1.37509 10.0106 0.940512C10.0106 0.687547 9.83764 0.436743 9.66251 0.263776C9.44008 0.10074 9.17284 0.010152 8.89712 0.00432439H8.89929ZM24.155 1.9394C24.155 1.9394 25.5712 6.43872 18.4276 16.4838C11.6041 26.0684 20.687 31.9428 21.5238 32.453C20.9162 32.0639 17.1974 29.2099 22.3929 20.728C23.4005 19.0632 24.7193 17.5497 26.3582 14.1531C26.3582 14.1531 27.8068 16.1984 27.0501 20.635C25.9193 27.3397 31.9602 25.4219 32.0532 25.5149C34.1634 28.0013 30.3062 32.3687 30.0705 32.5049C29.837 32.6368 41.0886 25.7376 33.0953 15.3487C32.5483 15.8957 31.837 18.4665 30.3559 18.0859C28.8771 17.7097 34.9504 10.5316 24.155 1.9394V1.9394ZM21.5238 32.453C21.5735 32.4876 21.6059 32.5049 21.6059 32.5049L21.5238 32.453Z" fill="#F9F9F9"/>
</svg>
