<svg width="44" height="35" viewBox="0 0 44 35" fill="none" xmlns="http://www.w3.org/2000/svg">
<path d="M39.4567 35H4.45667C3.29634 35 2.18354 34.5391 1.36307 33.7186C0.542601 32.8981 0.081665 31.7853 0.081665 30.625V4.18469C0.130736 3.05767 0.613247 1.99316 1.42846 1.21341C2.24367 0.433656 3.32858 -0.00106583 4.45667 1.96245e-06H39.4567C40.617 1.96245e-06 41.7298 0.460938 42.5503 1.28141C43.3707 2.10188 43.8317 3.21468 43.8317 4.375V30.625C43.8317 31.7853 43.3707 32.8981 42.5503 33.7186C41.7298 34.5391 40.617 35 39.4567 35ZM4.45667 8.46125V30.625H39.4567V8.46125L21.9567 20.125L4.45667 8.46125ZM6.20667 4.375L21.9567 14.875L37.7067 4.375H6.20667Z" fill="#F9F9F9"/>
</svg>
