<svg width="36" height="36" viewBox="0 0 36 36" fill="none" xmlns="http://www.w3.org/2000/svg">
<path d="M32.302 0.73468H3.64896C1.83059 0.73468 0.342834 2.21124 0.342834 4.01593V32.4534C0.342834 34.2581 1.83059 35.7347 3.64896 35.7347H32.302C34.1204 35.7347 35.6081 34.2581 35.6081 32.4534V4.01593C35.6081 2.21124 34.1204 0.73468 32.302 0.73468ZM13.5673 29.1722H9.15916V13.8597H13.5673V29.1722ZM11.3632 11.6722C10.7787 11.6722 10.2181 11.4417 9.80472 11.0315C9.39138 10.6212 9.15916 10.0648 9.15916 9.48468C9.15916 8.90452 9.39138 8.34812 9.80472 7.93788C10.2181 7.52765 10.7787 7.29718 11.3632 7.29718C11.9478 7.29718 12.5084 7.52765 12.9218 7.93788C13.3351 8.34812 13.5673 8.90452 13.5673 9.48468C13.5673 10.0648 13.3351 10.6212 12.9218 11.0315C12.5084 11.4417 11.9478 11.6722 11.3632 11.6722ZM28.9959 29.1722H24.5877V20.4222C24.5877 19.842 24.3555 19.2856 23.9422 18.8754C23.5288 18.4651 22.9682 18.2347 22.3836 18.2347C21.7991 18.2347 21.2385 18.4651 20.8251 18.8754C20.4118 19.2856 20.1796 19.842 20.1796 20.4222V29.1722H15.7714V13.8597H20.1796V16.5744C21.0876 15.3362 22.4806 13.8597 24.0367 13.8597C26.7786 13.8597 28.9959 16.3075 28.9959 19.3284V29.1722Z" fill="#F9F9F9"/>
</svg>
