<svg width="36" height="36" viewBox="0 0 36 36" fill="none" xmlns="http://www.w3.org/2000/svg">
<path d="M1.00638 1.00638C1.65096 0.361995 2.52508 0 3.43651 0C4.34795 0 5.22207 0.361995 5.86665 1.00638L18.0208 13.1605L30.1749 1.00638C30.8231 0.380257 31.6914 0.0338017 32.5926 0.0416332C33.4939 0.0494647 34.356 0.410956 34.9933 1.04825C35.6305 1.68554 35.992 2.54765 35.9999 3.44888C36.0077 4.35012 35.6612 5.21838 35.0351 5.86665L22.881 18.0208L35.0351 30.1749C35.6612 30.8231 36.0077 31.6914 35.9999 32.5926C35.992 33.4939 35.6305 34.356 34.9933 34.9933C34.356 35.6305 33.4939 35.992 32.5926 35.9999C31.6914 36.0077 30.8231 35.6612 30.1749 35.0351L18.0208 22.881L5.86665 35.0351C5.21838 35.6612 4.35012 36.0077 3.44888 35.9999C2.54765 35.992 1.68554 35.6305 1.04825 34.9933C0.410956 34.356 0.0494647 33.4939 0.0416332 32.5926C0.0338017 31.6914 0.380257 30.8231 1.00638 30.1749L13.1605 18.0208L1.00638 5.86665C0.361995 5.22207 0 4.34795 0 3.43651C0 2.52508 0.361995 1.65096 1.00638 1.00638V1.00638Z" fill="white"/>
</svg>
